<?xml version="1.0" encoding="utf-8"?>
<!-- Generator: Adobe Illustrator 23.0.1, SVG Export Plug-In . SVG Version: 6.00 Build 0)  -->
<svg version="1.1" id="Capa_1" xmlns="http://www.w3.org/2000/svg" xmlns:xlink="http://www.w3.org/1999/xlink" x="0px" y="0px"
	 viewBox="0 0 200 200" style="enable-background:new 0 0 200 200;" xml:space="preserve">
<style type="text/css">
	.st0{fill:#C99364;}
</style>
<g>
	<path class="st0" d="M199.913,142.896l-14.557-63.671c-0.03-0.132-0.069-0.259-0.113-0.384c-1.108-4.027-6.445-7.07-16.845-9.631
		c-1.978-10.393-11.128-18.277-22.088-18.277c-0.699,0-1.4,0.034-2.1,0.099c-3.822-7.377-11.525-12.162-19.981-12.162
		c-2.581,0-5.144,0.447-7.56,1.307c-3.607-5.606-9.829-9.077-16.668-9.077s-13.061,3.47-16.668,9.077
		c-2.416-0.86-4.979-1.307-7.56-1.307c-8.455,0-16.159,4.785-19.981,12.162c-0.7-0.066-1.401-0.099-2.1-0.099
		c-10.961,0-20.11,7.884-22.088,18.277c-10.643,2.621-15.987,5.745-16.919,9.914c-0.014,0.051-0.031,0.1-0.043,0.152l-14.554,63.62
		C0.029,143.15,0,143.41,0,143.671c0,6.662,10.402,12.602,30.915,17.656C50.738,166.21,75.273,168.9,100,168.9
		c24.728,0,49.262-2.689,69.085-7.573C189.599,156.273,200,150.332,200,143.671C200,143.41,199.971,143.151,199.913,142.896z
		 M168.59,76.441c6.616,1.796,8.927,3.374,9.671,4.055c-0.855,0.785-3.786,2.76-12.9,4.87
		C167.049,82.674,168.158,79.637,168.59,76.441z M53.691,57.884c1.145,0,2.301,0.13,3.436,0.386c1.708,0.386,3.436-0.56,4.033-2.206
		c2.221-6.127,8.093-10.243,14.612-10.243c2.603,0,5.178,0.656,7.447,1.898c0.866,0.474,1.892,0.557,2.823,0.23
		c0.931-0.328,1.679-1.035,2.057-1.947c2.004-4.83,6.675-7.95,11.902-7.95s9.898,3.121,11.902,7.95
		c0.378,0.911,1.126,1.619,2.057,1.947c0.931,0.328,1.957,0.244,2.823-0.23c2.268-1.242,4.844-1.898,7.447-1.898
		c6.519,0,12.391,4.116,14.612,10.243c0.597,1.646,2.325,2.593,4.033,2.206c1.136-0.256,2.292-0.386,3.436-0.386
		c8.568,0,15.306,6.974,15.538,15.538c0.161,5.928-4.068,11.136-8.189,14.116c-14.813,2.223-33.802,3.444-53.658,3.444
		c-19.364,0-37.901-1.162-52.546-3.281c-5.471-2.552-9.301-8.24-9.301-14.279C38.153,64.855,45.123,57.884,53.691,57.884z
		 M31.409,76.441c0.435,3.206,1.555,6.243,3.237,8.926c-9.119-2.11-12.051-4.086-12.907-4.871
		C22.483,79.815,24.794,78.237,31.409,76.441z M165.879,154.95c-19.034,4.513-42.431,6.998-65.879,6.998s-46.844-2.485-65.879-6.998
		c-18.75-4.446-26.173-9.296-27.102-11.18l12.845-56.149c1.318,0.739,2.56,1.24,3.291,1.534c4.359,1.755,10.512,3.316,18.286,4.64
		c15.673,2.669,36.47,4.139,58.56,4.139s42.887-1.47,58.56-4.139c7.774-1.324,13.927-2.885,18.286-4.64
		c0.732-0.295,1.977-0.796,3.298-1.537l12.838,56.152C192.053,145.654,184.63,150.504,165.879,154.95z"/>
	<path class="st0" d="M142.282,100.706c-8.076,0-14.799,5.909-16.072,13.63H73.79c-1.273-7.721-7.995-13.63-16.072-13.63
		c-8.981,0-16.288,7.307-16.288,16.288c0,3.582,1.171,7.013,3.288,9.814c-2.118,2.801-3.288,6.231-3.288,9.814
		c0,8.981,7.307,16.288,16.288,16.288c8.076,0,14.799-5.909,16.072-13.63h52.42c1.273,7.721,7.995,13.63,16.072,13.63
		c8.981,0,16.288-7.307,16.288-16.288c0-3.582-1.171-7.013-3.288-9.814c2.118-2.801,3.288-6.231,3.288-9.814
		C158.57,108.013,151.263,100.706,142.282,100.706z M148.281,129.47c2.121,1.781,3.338,4.388,3.338,7.152
		c0,5.148-4.188,9.337-9.337,9.337c-5.149,0-9.337-4.188-9.337-9.337c0-0.201,0.008-0.4,0.021-0.597
		c0.061-0.958-0.277-1.899-0.934-2.599c-0.657-0.7-1.574-1.097-2.534-1.097H70.503c-0.96,0-1.877,0.397-2.534,1.097
		s-0.995,1.641-0.934,2.599c0.013,0.197,0.021,0.397,0.021,0.597c0,5.148-4.188,9.337-9.337,9.337c-5.148,0-9.337-4.188-9.337-9.337
		c0-2.764,1.216-5.371,3.338-7.152c0.786-0.66,1.241-1.635,1.241-2.662c0-1.027-0.454-2.001-1.241-2.662
		c-2.121-1.781-3.338-4.388-3.338-7.152c0-5.148,4.188-9.337,9.337-9.337c5.149,0,9.337,4.188,9.337,9.337
		c0,0.201-0.008,0.4-0.021,0.597c-0.061,0.958,0.277,1.899,0.934,2.599c0.657,0.7,1.574,1.097,2.534,1.097h58.994
		c0.96,0,1.877-0.397,2.534-1.097c0.657-0.7,0.995-1.641,0.934-2.599c-0.013-0.198-0.021-0.397-0.021-0.597
		c0-5.148,4.188-9.337,9.337-9.337c5.148,0,9.337,4.188,9.337,9.337c0,2.764-1.217,5.371-3.338,7.152
		c-0.786,0.66-1.241,1.635-1.241,2.662C147.04,127.835,147.494,128.809,148.281,129.47z"/>
</g>
</svg>
