<?xml version="1.0" encoding="utf-8"?>
<!-- Generator: Adobe Illustrator 23.0.1, SVG Export Plug-In . SVG Version: 6.00 Build 0)  -->
<svg version="1.1" id="Capa_1" xmlns="http://www.w3.org/2000/svg" xmlns:xlink="http://www.w3.org/1999/xlink" x="0px" y="0px"
	 viewBox="0 0 200 200" style="enable-background:new 0 0 200 200;" xml:space="preserve">
<style type="text/css">
	.st0{fill:#C99364;}
</style>
<g>
	<path class="st0" d="M98.765,131.626c-11.909,0-21.597,9.019-21.597,20.105c0,5.265,3.103,8.408,8.299,8.408
		c2.386,0,5.005-0.607,7.537-1.193c2.096-0.485,4.263-0.988,5.761-0.988c1.305,0,3.364,0.48,5.354,0.944
		c2.607,0.608,5.304,1.237,7.791,1.237c5.293,0,8.453-3.143,8.453-8.408C120.363,140.645,110.674,131.626,98.765,131.626z
		 M113.254,153.023c-0.003,0.002-0.295,0.212-1.344,0.212c-1.693,0-3.996-0.537-6.223-1.056c-2.48-0.579-4.823-1.125-6.922-1.125
		c-2.287,0-4.845,0.592-7.319,1.165c-2.154,0.499-4.382,1.015-5.98,1.015c-0.886,0-1.178-0.174-1.183-0.158
		c-0.015-0.024-0.212-0.348-0.212-1.347c0-7.28,6.592-13.201,14.694-13.201c8.103,0,14.694,5.922,14.694,13.201
		C113.459,152.577,113.302,152.962,113.254,153.023z"/>
	<path class="st0" d="M88.018,125.033c0-6.076-4.215-11.02-9.396-11.02c-5.181,0-9.396,4.943-9.396,11.02
		c0,6.076,4.215,11.02,9.396,11.02C83.803,136.053,88.018,131.109,88.018,125.033z M76.13,125.033c0-2.356,1.316-4.116,2.493-4.116
		c1.176,0,2.492,1.76,2.492,4.116c0,2.356-1.316,4.116-2.492,4.116C77.445,129.149,76.13,127.389,76.13,125.033z"/>
	<path class="st0" d="M99.391,129.238c5.181,0,9.396-4.943,9.396-11.02c0-6.076-4.215-11.02-9.396-11.02s-9.396,4.943-9.396,11.02
		C89.995,124.295,94.21,129.238,99.391,129.238z M99.391,114.103c1.177,0,2.493,1.76,2.493,4.116c0,2.356-1.316,4.116-2.493,4.116
		c-1.176,0-2.492-1.76-2.492-4.116C96.899,115.863,98.214,114.103,99.391,114.103z"/>
	<path class="st0" d="M120.16,114.014c-5.181,0-9.396,4.943-9.396,11.02c0,6.076,4.215,11.02,9.396,11.02s9.396-4.943,9.396-11.02
		C129.556,118.957,125.341,114.014,120.16,114.014z M120.16,129.149c-1.176,0-2.493-1.76-2.493-4.116
		c0-2.356,1.316-4.116,2.493-4.116c1.176,0,2.493,1.76,2.493,4.116C122.653,127.389,121.336,129.149,120.16,129.149z"/>
	<path class="st0" d="M195.641,67.845L106.722,1.35c-1.889-1.412-4.139-2.159-6.507-2.159l-0.045,0
		c-0.022,0-0.041-0.001-0.058-0.001l-0.07,0.001c-0.026-0.001-0.051,0-0.077,0l-0.077-0.001c-0.016,0-0.036,0-0.057,0.001l-0.045,0
		c-2.368,0-4.618,0.747-6.507,2.159L4.36,67.845c-4.803,3.592-5.79,10.423-2.198,15.227l7.45,9.962
		c2.044,2.733,5.303,4.364,8.718,4.364c1.734,0,3.407-0.407,4.925-1.183v93.714c0,5.999,4.881,10.879,10.879,10.879h131.731
		c5.999,0,10.879-4.88,10.879-10.879V96.215c1.518,0.776,3.191,1.184,4.925,1.184c0,0,0,0,0,0c3.415,0,6.674-1.632,8.717-4.364
		l7.45-9.963C201.43,78.268,200.444,71.437,195.641,67.845z M165.866,193.906H34.135c-2.192,0-3.976-1.784-3.976-3.976V91.254
		l69.842-52.228l69.841,52.228v98.677C169.842,192.123,168.058,193.906,165.866,193.906z M192.31,78.938l-7.45,9.963
		c-0.758,1.014-1.92,1.595-3.189,1.595c-0.861,0-1.682-0.274-2.375-0.793l-77.228-57.752c-0.613-0.458-1.34-0.687-2.067-0.687
		s-1.454,0.229-2.067,0.687L20.705,89.703c-0.693,0.518-1.515,0.792-2.375,0.792c-1.269,0-2.431-0.582-3.189-1.595l-7.45-9.961
		c-1.312-1.756-0.952-4.253,0.803-5.565L97.413,6.879c0.686-0.513,1.506-0.784,2.41-0.784c0,0,0,0,0.001,0c0.026,0,0.052,0,0.079,0
		l0.07,0.001c0.02,0,0.041,0,0.056,0l0.078-0.001c0.039,0,0.078,0,0.108,0c0.866,0,1.687,0.271,2.373,0.785l88.919,66.494
		C193.262,74.686,193.622,77.183,192.31,78.938z"/>
	<path class="st0" d="M125.557,83.797c-9.788,0-18.893,3.912-25.556,10.861c-6.663-6.949-15.769-10.861-25.556-10.861
		c-19.565,0-35.482,15.917-35.482,35.482c0,9.125,3.242,18.316,9.635,27.32c4.975,7.007,11.874,13.926,20.505,20.565
		c14.55,11.192,28.879,17.69,29.482,17.96c0.45,0.202,0.932,0.304,1.416,0.304c0.425,0,0.852-0.078,1.256-0.236
		c0.605-0.236,14.992-5.914,29.59-16.711c8.662-6.406,15.585-13.294,20.576-20.472c6.381-9.174,9.616-18.84,9.616-28.73
		C161.039,99.714,145.122,83.797,125.557,83.797z M100.089,178.2c-8.446-4.102-54.224-27.782-54.224-58.921
		c0-15.759,12.82-28.579,28.579-28.579c9.033,0,17.344,4.138,22.804,11.353c0.652,0.862,1.671,1.369,2.752,1.369
		c1.081,0,2.1-0.507,2.752-1.369c5.459-7.215,13.771-11.353,22.804-11.353c15.759,0,28.579,12.82,28.579,28.579
		C154.135,153.336,108.574,174.548,100.089,178.2z"/>
</g>
</svg>
