<?xml version="1.0" encoding="utf-8"?>
<!-- Generator: Adobe Illustrator 23.0.1, SVG Export Plug-In . SVG Version: 6.00 Build 0)  -->
<svg version="1.1" id="Слой_1" xmlns="http://www.w3.org/2000/svg" xmlns:xlink="http://www.w3.org/1999/xlink" x="0px" y="0px"
	 viewBox="0 0 200 200" style="enable-background:new 0 0 200 200;" xml:space="preserve">
<style type="text/css">
	.st0{fill:#C99364;}
</style>
<g id="Page-1">
	<g transform="translate(-1)">
		<path id="Shape" class="st0" d="M68.292,101.667c-1.029,3.058-0.789,6.4,0.667,9.28l21.173,42.333
			c2.059,4.119,6.269,6.72,10.873,6.72c4.605,0,8.814-2.602,10.873-6.72l21.173-42.333c1.997-3.891,1.75-8.554-0.646-12.212
			c-2.396-3.658-6.573-5.747-10.937-5.471c-4.364,0.276-8.244,2.876-10.16,6.807l-10.31,20.596l-10.303-20.603
			c-2.197-4.399-6.828-7.041-11.733-6.692c-4.905,0.348-9.116,3.617-10.67,8.282L68.292,101.667z M77.369,100.604
			c1.301-0.654,2.809-0.763,4.191-0.303c1.382,0.46,2.523,1.452,3.172,2.756l13.283,26.566c0.627,1.051,1.76,1.695,2.983,1.695
			s2.357-0.644,2.983-1.695l13.283-26.57c1.393-2.643,4.643-3.687,7.314-2.35c2.671,1.337,3.783,4.565,2.502,7.263L105.909,150.3
			c-0.93,1.859-2.831,3.034-4.91,3.034s-3.98-1.174-4.91-3.034l-21.176-42.353c-1.354-2.711-0.254-6.006,2.457-7.36L77.369,100.604z
			"/>
		<path class="st0" d="M62.596,72.241c0.692,0,1.366-0.216,1.93-0.617c6.176-4.41,10.546-10.907,12.303-18.29h24.17
			c1.841,0,3.333-1.492,3.333-3.333c0-1.841-1.492-3.333-3.333-3.333H74.066c-1.664-0.001-3.074,1.225-3.303,2.873
			c-0.94,6.7-4.59,12.719-10.097,16.65c-1.183,0.841-1.686,2.351-1.243,3.733c0.442,1.382,1.728,2.319,3.18,2.317L62.596,72.241z"/>
		<path class="st0" d="M17.666,163.333c1.841,0,3.333-1.492,3.333-3.333c0.003-6.689,3.349-12.933,8.917-16.64
			c1.493-1.037,1.88-3.08,0.869-4.591c-1.011-1.511-3.047-1.933-4.575-0.949c-7.417,4.944-11.873,13.266-11.877,22.18
			C14.333,161.841,15.825,163.333,17.666,163.333z"/>
		<path class="st0" d="M12.71,188.29c0.043,0.043,0.1,0.057,0.143,0.097c9.545,9.5,23.24,13.541,36.413,10.743
			c1.632,0.557,3.342,0.851,5.067,0.87h93.332c3.533-0.013,6.969-1.155,9.807-3.26c9.291,4.732,20.375,4.289,29.258-1.169
			c8.884-5.458,14.289-15.144,14.268-25.571v-40c0.027-9.136-4.122-17.784-11.267-23.479c-7.144-5.695-16.5-7.812-25.4-5.748V73.868
			c-0.016-7.72-4.954-14.57-12.273-17.026c-4.61-1.536-7.722-5.847-7.727-10.707v-6.747c3.981-1.408,6.649-5.164,6.667-9.387v-20
			c0-5.523-4.477-10-10-10H60.999c-5.523,0-10,4.477-10,10v20c0.018,4.223,2.685,7.979,6.667,9.387v6.747
			c0.004,2.362-0.742,4.665-2.13,6.577c-1.387,1.929-3.344,3.374-5.597,4.13c-7.328,2.444-12.271,9.302-12.273,17.026v46.303
			c-15.487,1.277-28.828,11.418-34.202,25.999s-1.805,30.955,9.149,41.977C12.666,188.19,12.666,188.246,12.71,188.29z
			 M19.919,185.793l46.873-46.873c10.855,13.242,9.901,32.558-2.207,44.666S33.162,196.648,19.919,185.793z M170.998,193.333
			c-12.88-0.015-23.318-10.453-23.333-23.333v-16.666h46.666V170C194.316,182.88,183.878,193.318,170.998,193.333z M194.331,130
			v16.666h-46.666V130c0-12.887,10.447-23.333,23.333-23.333C183.884,106.667,194.331,117.114,194.331,130z M57.666,10.002
			c0-1.841,1.492-3.333,3.333-3.333h79.999c1.841,0,3.333,1.492,3.333,3.333v20c0,1.841-1.492,3.333-3.333,3.333h-3.333v-10
			c0-1.841-1.492-3.333-3.333-3.333s-3.333,1.492-3.333,3.333v10h-10v-10c0-1.841-1.492-3.333-3.333-3.333s-3.333,1.492-3.333,3.333
			v10h-10v-10c0-1.841-1.492-3.333-3.333-3.333s-3.333,1.492-3.333,3.333v10h-10v-10c0-1.841-1.492-3.333-3.333-3.333
			s-3.333,1.492-3.333,3.333v10h-10v-10c0-1.841-1.492-3.333-3.333-3.333c-1.841,0-3.333,1.492-3.333,3.333v10h-3.333
			c-1.841,0-3.333-1.492-3.333-3.333V10.002z M52.052,63.164c7.323-2.454,12.264-9.307,12.28-17.03v-6.133h73.333v6.133
			c0.002,7.728,4.949,14.587,12.28,17.03c2.257,0.759,4.218,2.21,5.603,4.147c1.381,1.907,2.122,4.202,2.117,6.557v6.133H77.665
			c-1.841,0-3.333,1.492-3.333,3.333s1.492,3.333,3.333,3.333h79.999v16.5c-10.196,5.059-16.651,15.451-16.667,26.833v40
			c0,8.681,3.771,16.934,10.333,22.616c-1.166,0.468-2.41,0.712-3.667,0.717H63.062c7.225-4.806,12.699-11.823,15.603-20h45.666
			c1.841,0,3.333-1.492,3.333-3.333s-1.492-3.333-3.333-3.333H80.395c2.253-12.705-1.856-25.709-11-34.813
			c-0.04-0.043-0.053-0.1-0.097-0.143c-0.043-0.043-0.1-0.057-0.143-0.097c-6.667-6.62-15.459-10.673-24.823-11.443V86.667h13.333
			c1.841,0,3.333-1.492,3.333-3.333s-1.492-3.333-3.333-3.333H44.333v-6.133C44.337,69.011,47.445,64.701,52.052,63.164
			L52.052,63.164z M40.999,126.667c7.688-0.006,15.14,2.659,21.08,7.54L15.206,181.08c-8.161-9.962-9.847-23.736-4.331-35.373
			C16.391,134.07,28.121,126.656,40.999,126.667L40.999,126.667z"/>
		<path class="st0" d="M157.665,133.334c1.841,0,3.333-1.492,3.333-3.333c0-5.523,4.477-10,10-10c1.841,0,3.333-1.492,3.333-3.333
			c0-1.841-1.492-3.333-3.333-3.333c-9.2,0.011-16.655,7.466-16.666,16.666C154.331,131.841,155.824,133.334,157.665,133.334z"/>
	</g>
</g>
</svg>
