<?xml version="1.0" encoding="utf-8"?>
<!-- Generator: Adobe Illustrator 23.0.1, SVG Export Plug-In . SVG Version: 6.00 Build 0)  -->
<svg version="1.1" id="Capa_1" xmlns="http://www.w3.org/2000/svg" xmlns:xlink="http://www.w3.org/1999/xlink" x="0px" y="0px"
	 viewBox="0 0 200 200" style="enable-background:new 0 0 200 200;" xml:space="preserve">
<style type="text/css">
	.st0{fill:#C99364;}
</style>
<path class="st0" d="M181.768,20.369L162.393,0.994c-1.326-1.326-3.477-1.326-4.804,0s-1.326,3.477,0,4.804l19.375,19.375
	c6.776,6.776,6.776,17.802,0,24.579c-3.25,3.25-7.626,4.999-12.3,4.935c-4.68-0.068-9.084-1.932-12.4-5.247l-25.427-25.427
	c-9.425-9.426-24.74-9.447-34.139-0.048c-9.425,9.425-9.425,24.762,0,34.187l9.117,9.117c-7.12-2.471-14.679-3.762-22.438-3.762
	c-18.229,0-35.367,7.099-48.257,19.989c-26.609,26.609-26.609,69.905,0,96.514c12.89,12.89,30.028,19.989,48.257,19.989
	c18.229,0,35.367-7.099,48.257-19.989s19.989-30.028,19.989-48.257s-7.099-35.367-19.989-48.257c-0.303-0.303-0.611-0.6-0.918-0.896
	L97.502,53.347c-6.776-6.776-6.776-17.802,0-24.579c6.75-6.75,17.754-6.728,24.531,0.048l25.427,25.427
	c4.572,4.572,10.647,7.142,17.105,7.236c6.524,0.09,12.643-2.364,17.203-6.924C191.193,45.131,191.193,29.794,181.768,20.369z
	 M112.901,80.233c-8.213,0.697-16.21,2.442-23.83,5.18c-0.16-0.082-0.326-0.155-0.502-0.211
	c-14.827-4.772-30.356-5.784-45.502-3.039c10.47-7.7,23.069-11.861,36.309-11.861C91.463,70.302,103.015,73.771,112.901,80.233z
	 M43.513,120.443c-8.39-0.261-16.761,0.601-24.94,2.575c0.516-3.623,1.358-7.207,2.519-10.708c0.06-0.018,0.12-0.034,0.18-0.054
	c11.932-4.173,22.443-5.766,33.331-5.002c-0.086,0.085-0.174,0.167-0.259,0.253C50.316,111.535,46.702,115.865,43.513,120.443z
	 M61.367,101.144c-0.008-0.001-0.016-0.004-0.024-0.005c-12.415-1.782-23.98-0.884-36.829,2.929
	c2.246-4.458,5.067-8.698,8.467-12.607c14.487-4.212,31.123-4.993,46.077-1.771C72.794,92.809,66.863,96.639,61.367,101.144z
	 M17.974,130.186c6.962-1.871,14.085-2.87,21.248-2.983c-6.533,11.33-10.619,23.911-11.986,37.086
	C20.762,153.915,17.675,142.015,17.974,130.186z M33.532,172.673c0.387-22.807,9.445-44.191,25.616-60.362
	c16.294-16.294,38.968-25.365,62.002-25.622c0.567,0.527,1.129,1.062,1.679,1.612c2.34,2.34,4.465,4.839,6.371,7.467
	c-45.73,3.557-82.318,39.658-86.488,85.316c-2.381-1.777-4.651-3.738-6.79-5.877C35.097,174.38,34.302,173.534,33.532,172.673z
	 M137.719,112.357c-20.559,2.685-38.72,11.091-52.698,24.44c-14.567,13.911-23.456,32.201-25.818,53.032
	c-3.453-1.197-6.792-2.699-9.981-4.5c2.269-45.279,38.808-81.332,84.134-82.995C135.11,105.54,136.571,108.892,137.719,112.357z
	 M135.984,155.742c-5.171-11.348-12.574-21.591-21.699-30.046c4.538-1.949,9.319-3.542,14.311-4.749
	c4.702,5.991,8.598,12.586,11.604,19.631C139.45,145.829,138.03,150.917,135.984,155.742z M140.598,126.429
	c-1.431-2.387-2.966-4.71-4.603-6.959c1.159-0.184,2.329-0.346,3.507-0.49C140.017,121.425,140.383,123.911,140.598,126.429z
	 M105.426,155.906c5.913,6.512,10.825,13.908,14.557,21.97c-9.837,8.684-22.014,13.916-35.041,15.078
	C86.846,177.557,94.327,163.998,105.426,155.906z M78.08,193.189c-4.166-0.086-8.265-0.582-12.247-1.473
	c2-19.699,10.498-36.829,23.646-49.584c3.968,2.667,7.69,5.64,11.137,8.883C88.199,160.46,79.952,175.877,78.08,193.189z
	 M125.093,172.819c-6.996-14.141-17.418-26.269-30.379-35.333c3.988-3.239,8.319-6.119,12.953-8.602
	c10.771,9.373,19.152,21.364,24.261,34.763C129.956,166.882,127.673,169.953,125.093,172.819z"/>
</svg>
