<?xml version="1.0" encoding="utf-8"?>
<!-- Generator: Adobe Illustrator 23.0.1, SVG Export Plug-In . SVG Version: 6.00 Build 0)  -->
<svg version="1.1" id="Capa_1" xmlns="http://www.w3.org/2000/svg" xmlns:xlink="http://www.w3.org/1999/xlink" x="0px" y="0px"
	 viewBox="0 0 200 200" style="enable-background:new 0 0 200 200;" xml:space="preserve">
<style type="text/css">
	.st0{fill:#C99364;}
</style>
<g>
	<path class="st0" d="M191.65,50.288h-59.166V37.085c0-4.604-3.746-8.35-8.35-8.35H75.867c-4.604,0-8.35,3.746-8.35,8.35v13.204
		H8.35c-4.604,0-8.35,3.746-8.35,8.35v104.277c0,4.604,3.746,8.35,8.35,8.35H191.65c4.604,0,8.35-3.746,8.35-8.35V58.639
		C200,54.035,196.254,50.288,191.65,50.288z M74.442,37.085c0-0.786,0.64-1.426,1.426-1.426h48.266c0.786,0,1.426,0.64,1.426,1.426
		v13.204H74.442V37.085z M193.075,162.916c0,0.786-0.64,1.426-1.426,1.426H8.35c-0.786,0-1.426-0.64-1.426-1.426V58.639
		c0-0.786,0.64-1.426,1.426-1.426H191.65c0.786,0,1.426,0.64,1.426,1.426V162.916z"/>
	<path class="st0" d="M117.941,98.013h-5.176v-5.176c0-5.207-4.236-9.443-9.443-9.443h-6.645c-5.207,0-9.443,4.236-9.443,9.443
		v5.176h-5.176c-5.207,0-9.443,4.236-9.443,9.443v6.645c0,5.207,4.236,9.443,9.443,9.443h5.176v5.176
		c0,5.207,4.236,9.443,9.443,9.443h6.645c5.207,0,9.443-4.236,9.443-9.443v-5.176h5.176c5.207,0,9.443-4.236,9.443-9.443v-6.645
		C127.384,102.248,123.147,98.013,117.941,98.013z M120.459,114.1c0,1.388-1.13,2.518-2.518,2.518h-8.638
		c-1.912,0-3.462,1.55-3.462,3.462v8.638c0,1.388-1.13,2.518-2.518,2.518h-6.645c-1.388,0-2.518-1.13-2.518-2.518v-8.638
		c0-1.912-1.55-3.462-3.462-3.462h-8.638c-1.388,0-2.518-1.13-2.518-2.518v-6.645c0-1.388,1.13-2.518,2.518-2.518h8.638
		c1.912,0,3.462-1.55,3.462-3.462v-8.638c0-1.388,1.13-2.518,2.518-2.518h6.645c1.388,0,2.518,1.13,2.518,2.518v8.638
		c0,1.912,1.55,3.462,3.462,3.462h8.638c1.388,0,2.518,1.13,2.518,2.518V114.1z"/>
	<path class="st0" d="M172.11,85.075c-7.948,0-14.566,5.805-15.837,13.398h-9.807c-5.449-20.561-24.215-35.76-46.466-35.76
		s-41.017,15.199-46.466,35.76h-9.807c-1.271-7.592-7.888-13.398-15.836-13.398c-8.853,0-16.055,7.203-16.055,16.056
		c0,3.52,1.146,6.891,3.22,9.646c-2.075,2.756-3.22,6.126-3.22,9.646c0,8.853,7.202,16.056,16.055,16.056
		c7.948,0,14.565-5.805,15.836-13.398h9.807c5.449,20.561,24.215,35.76,46.466,35.76s41.017-15.199,46.466-35.76h9.807
		c1.271,7.592,7.888,13.398,15.837,13.398c8.853,0,16.055-7.203,16.055-16.056c0-3.52-1.146-6.891-3.22-9.646
		c2.075-2.756,3.22-6.126,3.22-9.646C188.165,92.278,180.963,85.075,172.11,85.075z M40.457,116.157
		c-0.957,0-1.871,0.396-2.525,1.094c-0.655,0.698-0.991,1.636-0.93,2.591c0.012,0.192,0.02,0.386,0.02,0.582
		c0,5.035-4.097,9.131-9.132,9.131c-5.035,0-9.131-4.097-9.131-9.131c0-2.703,1.19-5.253,3.264-6.995
		c0.783-0.658,1.235-1.629,1.235-2.651c0-1.023-0.452-1.993-1.235-2.651c-2.075-1.742-3.264-4.292-3.264-6.995
		c0-5.035,4.096-9.131,9.131-9.131c5.035,0,9.132,4.097,9.132,9.131c0,0.196-0.008,0.389-0.02,0.582
		c-0.062,0.955,0.275,1.892,0.93,2.591c0.654,0.698,1.569,1.094,2.525,1.094h11.78c-0.198,1.767-0.303,3.561-0.303,5.38
		c0,1.819,0.105,3.613,0.303,5.38H40.457z M100,151.918c-22.685,0-41.141-18.456-41.141-41.141S77.315,69.637,100,69.637
		s41.141,18.456,41.141,41.141S122.685,151.918,100,151.918z M177.976,113.428c2.075,1.742,3.264,4.292,3.264,6.995
		c0,5.035-4.096,9.131-9.131,9.131c-5.035,0-9.132-4.097-9.132-9.131c0-0.197,0.009-0.393,0.021-0.587
		c0.06-0.954-0.277-1.891-0.932-2.587c-0.654-0.697-1.568-1.092-2.524-1.092h-11.78c0.198-1.767,0.303-3.561,0.303-5.38
		c0-1.819-0.105-3.613-0.303-5.38h11.78c0.956,0,1.87-0.396,2.524-1.092c0.655-0.697,0.992-1.633,0.932-2.587
		c-0.012-0.194-0.021-0.389-0.021-0.587c0-5.035,4.097-9.131,9.132-9.131c5.035,0,9.131,4.097,9.131,9.131
		c0,2.703-1.19,5.253-3.264,6.995c-0.784,0.657-1.236,1.628-1.236,2.651C176.74,111.8,177.193,112.771,177.976,113.428z"/>
</g>
</svg>
