<?xml version="1.0" encoding="utf-8"?>
<!-- Generator: Adobe Illustrator 23.0.1, SVG Export Plug-In . SVG Version: 6.00 Build 0)  -->
<svg version="1.1" id="Capa_1" xmlns="http://www.w3.org/2000/svg" xmlns:xlink="http://www.w3.org/1999/xlink" x="0px" y="0px"
	 viewBox="0 0 200 200" style="enable-background:new 0 0 200 200;" xml:space="preserve">
<style type="text/css">
	.st0{fill:#C99364;}
</style>
<g>
	<path class="st0" d="M128.172,156.645c-12.068,0-21.886,9.14-21.886,20.374c0,5.335,3.144,8.52,8.41,8.52
		c2.419,0,5.072-0.615,7.638-1.209c2.123-0.492,4.319-1.001,5.838-1.001c1.322,0,3.409,0.486,5.426,0.957
		c2.642,0.616,5.374,1.253,7.895,1.253c5.363,0,8.566-3.185,8.566-8.52C150.059,165.784,140.24,156.645,128.172,156.645z
		 M142.855,178.328c-0.003,0.002-0.299,0.215-1.362,0.215c-1.716,0-4.049-0.544-6.306-1.07c-2.513-0.586-4.888-1.14-7.015-1.14
		c-2.318,0-4.91,0.6-7.417,1.181c-2.184,0.506-4.441,1.029-6.06,1.029c-0.913,0-1.193-0.173-1.199-0.16
		c-0.016-0.024-0.215-0.353-0.215-1.364c0-7.377,6.68-13.378,14.89-13.378c8.211,0,14.891,6.001,14.891,13.378
		C143.063,177.876,142.904,178.266,142.855,178.328z"/>
	<path class="st0" d="M117.281,149.963c0-6.158-4.271-11.167-9.521-11.167c-5.251,0-9.522,5.009-9.522,11.167
		s4.272,11.167,9.522,11.167C113.01,161.131,117.281,156.121,117.281,149.963z M105.234,149.963c0-2.387,1.334-4.171,2.526-4.171
		c1.192,0,2.526,1.784,2.526,4.171s-1.333,4.171-2.526,4.171C106.568,154.135,105.234,152.351,105.234,149.963z"/>
	<path class="st0" d="M128.806,154.225c5.251,0,9.522-5.009,9.522-11.167c0-6.158-4.272-11.167-9.522-11.167
		c-5.25,0-9.521,5.009-9.521,11.167S123.556,154.225,128.806,154.225z M128.806,138.887c1.192,0,2.526,1.784,2.526,4.171
		c0,2.387-1.334,4.171-2.526,4.171c-1.192,0-2.526-1.784-2.526-4.171C126.281,140.67,127.614,138.887,128.806,138.887z"/>
	<path class="st0" d="M149.853,138.796c-5.251,0-9.522,5.009-9.522,11.167s4.272,11.167,9.522,11.167s9.522-5.009,9.522-11.167
		C159.375,143.806,155.104,138.796,149.853,138.796z M149.853,154.135c-1.192,0-2.526-1.784-2.526-4.171
		c0-2.387,1.334-4.171,2.526-4.171c1.192,0,2.526,1.784,2.526,4.171C152.38,152.351,151.046,154.135,149.853,154.135z"/>
	<path class="st0" d="M158.23,54.321h-3.704V44.239c0-4.652-3.784-8.436-8.436-8.436h-13.786v-9.877h5.761
		c4.652,0,8.436-3.784,8.436-8.436V8.437c0-4.652-3.784-8.436-8.436-8.436h-34.568l-0.77,0C97.791,0,90.33,0,84.039,4.657
		c-7.167,5.305-10.651,14.932-10.651,29.431c0,1.932,1.566,3.498,3.498,3.498h12.209c1.932,0,3.498-1.566,3.498-3.498
		c0-3.448,1.207-5.67,3.797-6.994c2.259-1.155,4.741-1.168,4.836-1.168c0.026,0,0.052,0.001,0.078,0.001h24.005v9.877h-13.786
		c-4.652,0-8.436,3.784-8.436,8.436v10.082h-3.704c-13.955,0-25.309,11.353-25.309,25.309v116.872c0,1.932,1.566,3.498,3.498,3.498
		h102.469c1.932,0,3.498-1.566,3.498-3.498V79.63C183.539,65.675,172.186,54.321,158.23,54.321z M101.235,18.93
		c-4.84,0-13.538,2.537-15.316,11.66h-5.458C81.54,6.997,93.724,6.996,102.728,6.996l35.337,0c0.794,0,1.44,0.646,1.44,1.44v9.053
		c0,0.794-0.646,1.44-1.44,1.44h-36.762L101.235,18.93z M110.082,44.239c0-0.794,0.646-1.44,1.44-1.44h34.568
		c0.794,0,1.44,0.646,1.44,1.44v10.082h-37.448V44.239z M99.383,61.317h58.848c10.098,0,18.313,8.215,18.313,18.313v9.591
		c-7.144-0.503-25.427-0.174-41.388,13.693c-9.684,8.413-20.919,12.363-31.633,11.126c-8.988-1.038-16.958-5.781-22.451-13.355
		V79.63C81.07,69.532,89.285,61.317,99.383,61.317z M81.07,193.004v-81.872c6.027,5.481,13.487,8.913,21.648,9.856
		c1.561,0.18,3.13,0.27,4.7,0.27c11.195,0,22.515-4.543,32.324-13.064c14.326-12.444,31.224-12.367,36.801-11.943v96.753
		L81.07,193.004L81.07,193.004z"/>
	<path class="st0" d="M42.181,67.078c6.694,0,12.14-5.446,12.14-12.14s-5.446-12.14-12.14-12.14s-12.14,5.446-12.14,12.14
		C30.041,61.633,35.487,67.078,42.181,67.078z M42.181,49.795c2.837,0,5.144,2.307,5.144,5.144c0,2.837-2.307,5.144-5.144,5.144
		c-2.837,0-5.144-2.307-5.144-5.144C37.037,52.102,39.345,49.795,42.181,49.795z"/>
	<path class="st0" d="M45.268,98.56c-11.459,0-20.782,9.323-20.782,20.782s9.323,20.782,20.782,20.782s20.782-9.323,20.782-20.782
		S56.727,98.56,45.268,98.56z M45.268,133.128c-7.602,0-13.786-6.184-13.786-13.786c0-7.602,6.184-13.786,13.786-13.786
		s13.786,6.184,13.786,13.786S52.869,133.128,45.268,133.128z"/>
	<path class="st0" d="M28.19,159.877c-6.467,0-11.728,5.261-11.728,11.728c0,6.467,5.261,11.728,11.728,11.728
		s11.728-5.261,11.728-11.728C39.918,165.138,34.656,159.877,28.19,159.877z M28.19,176.337c-2.609,0-4.733-2.123-4.733-4.732
		c0-2.609,2.123-4.732,4.733-4.732c2.609,0,4.733,2.123,4.733,4.732C32.922,174.214,30.799,176.337,28.19,176.337z"/>
</g>
</svg>
