<?xml version="1.0" encoding="utf-8"?>
<!-- Generator: Adobe Illustrator 23.0.1, SVG Export Plug-In . SVG Version: 6.00 Build 0)  -->
<svg version="1.1" id="Слой_1" xmlns="http://www.w3.org/2000/svg" xmlns:xlink="http://www.w3.org/1999/xlink" x="0px" y="0px"
	 viewBox="0 0 200 200" style="enable-background:new 0 0 200 200;" xml:space="preserve">
<style type="text/css">
	.st0{fill:#C99364;}
</style>
<g>
	<path class="st0" d="M55.556,45.894h18.002c1.631,0,2.954-1.322,2.954-2.954c0-1.631-1.322-2.954-2.954-2.954l0,0H55.556
		c-1.631,0-2.954,1.322-2.954,2.954C52.603,44.571,53.925,45.894,55.556,45.894z"/>
	<path class="st0" d="M200,114.937c-0.009-5.23-3.846-9.665-9.021-10.425l-24.893-72.658c-0.41-1.194-1.533-1.996-2.795-1.997
		H136.54V13.08C136.532,5.86,130.68,0.008,123.46,0H76.54C69.32,0.008,63.468,5.86,63.46,13.08v16.776H36.709
		c-1.262,0.001-2.385,0.803-2.795,1.997L9.03,104.508c-5.182,0.752-9.027,5.193-9.03,10.429c0.01,5.233,3.852,9.668,9.03,10.424
		l24.895,72.643c0.408,1.191,1.526,1.993,2.785,1.997h126.582c1.262,0,2.384-0.803,2.793-1.997l24.895-72.641
		C196.158,124.609,199.999,120.17,200,114.937z M69.367,13.08c0.005-3.96,3.213-7.168,7.173-7.173h46.92
		c3.96,0.005,7.168,3.213,7.173,7.173v16.776h-4.219V13.08c0-1.631-1.322-2.954-2.954-2.954H76.54c-1.631,0-2.954,1.322-2.954,2.954
		v16.776h-4.219V13.08z M79.494,29.857V16.034h41.013v13.823H79.494z M38.819,35.764h122.363l23.511,68.624h-26.358
		c-1.136-4.253-5.505-6.78-9.759-5.644c-2.756,0.736-4.908,2.888-5.644,5.644H57.068c-1.136-4.253-5.505-6.78-9.759-5.644
		c-2.756,0.736-4.908,2.888-5.644,5.644H15.308L38.819,35.764z M57.384,119.578v-9.283h85.232v9.283H57.384z M47.257,106.491
		c0-1.165,0.945-2.11,2.11-2.11s2.11,0.945,2.11,2.11v16.878c0,1.165-0.945,2.11-2.11,2.11s-2.11-0.945-2.11-2.11V106.491z
		 M148.523,106.491c0-1.165,0.945-2.11,2.11-2.11c1.165,0,2.11,0.945,2.11,2.11v16.878c0,1.165-0.945,2.11-2.11,2.11
		c-1.165,0-2.11-0.945-2.11-2.11V106.491z M5.907,114.93c0.008-2.559,2.083-4.63,4.641-4.635H41.35v9.283H10.549
		c-2.562-0.003-4.639-2.079-4.641-4.641V114.93z M161.181,194.086H38.819l-23.511-68.601h26.361
		c1.143,4.251,5.516,6.771,9.768,5.628c2.745-0.738,4.89-2.883,5.628-5.628h85.87c1.143,4.251,5.516,6.771,9.768,5.628
		c2.745-0.738,4.89-2.883,5.628-5.628h26.361L161.181,194.086z M192.731,118.208c-0.866,0.877-2.047,1.37-3.279,1.37H158.65v-9.283
		h30.802c2.563,0.002,4.639,2.079,4.641,4.641c0.008,1.232-0.484,2.414-1.362,3.278V118.208z"/>
	<path class="st0" d="M94.937,83.156h10.127c1.631-0.001,2.953-1.323,2.954-2.954V59.949c0-1.631-1.322-2.954-2.954-2.954H94.937
		c-1.631,0-2.954,1.322-2.954,2.954v20.253C91.984,81.833,93.306,83.155,94.937,83.156z M97.89,62.903h4.219v14.346H97.89V62.903z"
		/>
	<path class="st0" d="M120.253,83.156h10.127c1.631-0.001,2.953-1.323,2.954-2.954V59.949c0-1.631-1.322-2.954-2.954-2.954h-10.127
		c-1.631,0-2.954,1.322-2.954,2.954v20.253C117.301,81.833,118.622,83.155,120.253,83.156z M123.207,62.903h4.219v14.346h-4.219
		V62.903z"/>
	<path class="st0" d="M145.57,83.156h10.127c1.631-0.001,2.953-1.323,2.954-2.954V59.949c0-1.631-1.322-2.954-2.954-2.954H145.57
		c-1.631,0-2.954,1.322-2.954,2.954v20.253C142.617,81.833,143.939,83.155,145.57,83.156z M148.523,62.903h4.219v14.346h-4.219
		V62.903z"/>
	<path class="st0" d="M66.667,59.949v20.253c0.001,1.631,1.323,2.953,2.954,2.954h10.127c1.631-0.001,2.953-1.323,2.954-2.954
		V59.949c0-1.631-1.322-2.954-2.954-2.954H69.62C67.989,56.996,66.667,58.318,66.667,59.949z M72.574,62.903h4.219v14.346h-4.219
		V62.903z"/>
	<path class="st0" d="M44.304,83.156H54.43c1.631-0.001,2.953-1.323,2.954-2.954V59.949c0-1.631-1.322-2.954-2.954-2.954H44.304
		c-1.631,0-2.954,1.322-2.954,2.954v20.253C41.351,81.833,42.673,83.155,44.304,83.156z M47.257,62.903h4.219v14.346h-4.219V62.903z
		"/>
	<path class="st0" d="M105.063,146.705H94.937c-1.631,0-2.954,1.322-2.954,2.954v20.253c0,1.631,1.322,2.954,2.954,2.954h10.127
		c1.631,0,2.954-1.322,2.954-2.954v-20.253C108.017,148.028,106.695,146.705,105.063,146.705z M102.11,166.959H97.89v-14.346h4.219
		V166.959z"/>
	<path class="st0" d="M130.38,146.705h-10.127c-1.631,0-2.954,1.322-2.954,2.954v20.253c0,1.631,1.322,2.954,2.954,2.954h10.127
		c1.631,0,2.954-1.322,2.954-2.954v-20.253C133.333,148.028,132.011,146.705,130.38,146.705z M127.426,166.959h-4.219v-14.346h4.219
		V166.959z"/>
	<path class="st0" d="M155.696,146.705H145.57c-1.631,0-2.954,1.322-2.954,2.954v20.253c0,1.631,1.322,2.954,2.954,2.954h10.127
		c1.631,0,2.954-1.322,2.954-2.954v-20.253C158.65,148.028,157.327,146.705,155.696,146.705z M152.743,166.959h-4.219v-14.346h4.219
		V166.959z"/>
	<path class="st0" d="M79.747,146.705H69.62c-1.631,0-2.954,1.322-2.954,2.954v20.253c0,1.631,1.322,2.954,2.954,2.954h10.127
		c1.631,0,2.954-1.322,2.954-2.954v-20.253C82.7,148.028,81.378,146.705,79.747,146.705z M76.793,166.959h-4.219v-14.346h4.219
		V166.959z"/>
	<path class="st0" d="M54.43,146.705H44.304c-1.631,0-2.954,1.322-2.954,2.954v20.253c0,1.631,1.322,2.954,2.954,2.954H54.43
		c1.631,0,2.954-1.322,2.954-2.954v-20.253C57.384,148.028,56.062,146.705,54.43,146.705z M51.477,166.959h-4.219v-14.346h4.219
		V166.959z"/>
</g>
</svg>
