<?xml version="1.0" encoding="utf-8"?>
<!-- Generator: Adobe Illustrator 23.0.1, SVG Export Plug-In . SVG Version: 6.00 Build 0)  -->
<svg version="1.1" id="Слой_1" xmlns="http://www.w3.org/2000/svg" xmlns:xlink="http://www.w3.org/1999/xlink" x="0px" y="0px"
	 viewBox="0 0 200 200" style="enable-background:new 0 0 200 200;" xml:space="preserve">
<style type="text/css">
	.st0{fill:#C99364;}
</style>
<g>
	<path class="st0" d="M200.001,54.341c0-14.875-10.653-28.708-29.992-38.949c-18.744-9.924-43.605-15.389-70.004-15.389
		S48.744,5.468,30,15.392C10.661,25.633,0.008,39.465,0.008,54.341l0,0l0,0V84.72c0,23.628,27.282,44.157,68.15,51.521v2.137
		c-0.004,1.452,1.048,2.692,2.481,2.925c8.74,1.366,17.567,2.106,26.413,2.214v22.607c-3.449,1.014-6.147,3.71-7.164,7.158h-4.341
		c-2.371-2.089-8.585-6.953-14.148-5.907c-2.871,0.592-5.238,2.613-6.273,5.355c-2.341,5.232,1.279,8.563,3.019,10.165
		c0.226,0.208,0.516,0.474,0.753,0.712c-0.236,0.238-0.528,0.506-0.753,0.712c-1.74,1.602-5.36,4.935-3.018,10.167
		c1.033,2.745,3.402,4.769,6.275,5.36c5.558,1.051,11.775-3.818,14.145-5.907h28.917c2.143,1.892,7.439,6.059,12.538,6.059
		c3.53,0.017,6.687-2.191,7.883-5.512c2.341-5.232-1.279-8.562-3.019-10.163c-0.224-0.208-0.516-0.474-0.753-0.712
		c0.236-0.238,0.527-0.506,0.753-0.712c1.74-1.602,5.36-4.935,3.018-10.17c-1.036-2.74-3.403-4.759-6.272-5.35
		c-5.548-1.048-11.777,3.814-14.148,5.907h-4.332c-1.017-3.448-3.715-6.144-7.164-7.158v-22.61
		c8.843-0.109,17.667-0.849,26.404-2.214c1.433-0.23,2.488-1.466,2.488-2.918v-2.137c40.868-7.363,68.15-27.884,68.15-51.521V54.348
		l0,0L200.001,54.341z M130.805,96.483c-0.667-0.56-1.547-0.798-2.405-0.651c-18.795,3.168-37.987,3.168-56.781,0
		c-1.607-0.278-3.136,0.8-3.413,2.407c-0.029,0.166-0.043,0.335-0.043,0.504v1.089c-27.059-5.045-48.174-16.202-57.382-30.328
		c12.845-19.628,49.089-33.202,89.224-33.202s76.379,13.579,89.222,33.211c-9.205,14.128-30.318,25.282-57.382,30.326v-1.095
		c0.002-0.87-0.38-1.697-1.045-2.26H130.805z M100.005,5.91c51.882,0,94.09,21.726,94.09,48.437
		c-0.012,3.181-0.617,6.332-1.784,9.291c-15.318-20.07-51.392-33.244-92.306-33.244S23.017,43.568,7.699,63.632
		c-1.167-2.959-1.772-6.11-1.784-9.291C5.915,27.636,48.123,5.91,100.005,5.91z M5.915,84.726V72.929
		c10.295,15.569,33.233,27.694,62.243,32.91v9.745c-2.857-0.489-5.382-1.013-7.18-1.495c-1.575-0.427-3.197,0.504-3.624,2.078
		c-0.427,1.575,0.504,3.197,2.078,3.624c2.157,0.584,5.252,1.207,8.725,1.781v8.678C31.334,123.341,5.915,104.894,5.915,84.726z
		 M115.616,179.187c0.77-0.003,1.509-0.305,2.059-0.844c2.521-2.445,7.234-5.672,9.838-5.171c0.327,0.062,1.2,0.23,1.98,1.964
		c0.506,1.114,0.413,1.529-1.629,3.407c-2.793,1.563-3.791,5.094-2.229,7.887c0.523,0.935,1.294,1.706,2.229,2.229
		c2.039,1.877,2.125,2.294,1.63,3.402c-0.785,1.745-1.657,1.914-1.986,1.976c-2.601,0.506-7.313-2.729-9.829-5.175
		c-0.552-0.54-1.292-0.843-2.064-0.844H84.393c-0.772,0.001-1.513,0.304-2.064,0.844c-2.434,2.376-7.257,5.657-9.826,5.175
		c-0.338-0.062-1.203-0.23-1.988-1.973c-0.496-1.112-0.41-1.529,1.629-3.406c2.793-1.563,3.791-5.094,2.229-7.887
		c-0.523-0.935-1.294-1.706-2.229-2.229c-2.042-1.878-2.127-2.294-1.632-3.402c0.783-1.74,1.656-1.907,1.983-1.97
		c2.592-0.506,7.316,2.726,9.834,5.169c0.551,0.539,1.291,0.842,2.062,0.844h5.487c1.621,5.59,7.466,8.807,13.056,7.187
		c3.469-1.006,6.181-3.718,7.187-7.187L115.616,179.187z M104.646,176.242c0,2.563-2.078,4.641-4.641,4.641
		s-4.641-2.078-4.641-4.641s2.078-4.641,4.641-4.641C102.567,171.604,104.643,173.68,104.646,176.242L104.646,176.242z
		 M125.945,135.845c-17.209,2.417-34.671,2.417-51.88,0v-13.399c4.962,0.693,9.961,1.087,14.97,1.181
		c1.631,0,2.953-1.322,2.953-2.953c0-1.631-1.322-2.953-2.953-2.953c-5.01-0.108-10.01-0.521-14.97-1.237v-14.271
		c17.2,2.54,34.68,2.54,51.88,0V135.845z M194.094,84.726c0,20.163-25.419,38.615-62.243,45.524V105.84
		c29.01-5.217,51.954-17.34,62.243-32.91V84.726z"/>
	<path class="st0" d="M43.954,26.273c0.392,0,0.781-0.078,1.143-0.23c3.761-1.573,7.605-2.938,11.515-4.089
		c1.564-0.466,2.454-2.112,1.988-3.676s-2.112-2.454-3.676-1.988c-4.117,1.214-8.166,2.652-12.126,4.307
		c-1.503,0.633-2.209,2.364-1.577,3.868c0.461,1.096,1.535,1.809,2.724,1.808L43.954,26.273z"/>
	<path class="st0" d="M149.792,110.346h-0.017c-2.817,0.005-5.096,2.292-5.092,5.109c0.005,2.817,2.292,5.096,5.109,5.092
		c2.817-0.005,5.096-2.292,5.092-5.109C154.879,112.627,152.602,110.35,149.792,110.346z"/>
	<path class="st0" d="M161.42,105.198c-1.457,0.727-2.048,2.498-1.321,3.955c0.502,1.005,1.531,1.638,2.654,1.631
		c0.458,0,0.91-0.11,1.316-0.321c1.454-0.732,2.04-2.504,1.308-3.958S162.874,104.466,161.42,105.198L161.42,105.198z"/>
	<path class="st0" d="M172.492,98.918c-1.38,0.872-1.791,2.698-0.919,4.077c0.543,0.859,1.489,1.378,2.505,1.376
		c1.631,0.004,2.957-1.315,2.961-2.946c0.001-0.565-0.159-1.119-0.463-1.596C175.698,98.452,173.872,98.045,172.492,98.918z"/>
	<path class="st0" d="M136.819,114.445c-1.379,0.874-1.788,2.699-0.914,4.078c0.543,0.856,1.487,1.375,2.501,1.373
		c1.63,0.005,2.956-1.312,2.961-2.942c0.002-0.566-0.159-1.121-0.464-1.598C140.026,113.978,138.198,113.57,136.819,114.445z"/>
	<path class="st0" d="M182.944,91.173c-1.379,0.874-1.788,2.699-0.914,4.078c0.543,0.856,1.487,1.375,2.501,1.373
		c0.561-0.002,1.111-0.16,1.586-0.457c1.39-0.859,1.821-2.682,0.962-4.072s-2.682-1.821-4.072-0.962
		C182.986,91.146,182.965,91.16,182.944,91.173L182.944,91.173z"/>
</g>
</svg>
