<?xml version="1.0" encoding="utf-8"?>
<!-- Generator: Adobe Illustrator 23.0.1, SVG Export Plug-In . SVG Version: 6.00 Build 0)  -->
<svg version="1.1" id="Capa_1" xmlns="http://www.w3.org/2000/svg" xmlns:xlink="http://www.w3.org/1999/xlink" x="0px" y="0px"
	 viewBox="0 0 200 200" style="enable-background:new 0 0 200 200;" xml:space="preserve">
<style type="text/css">
	.st0{fill:#C99364;}
</style>
<g>
	<path class="st0" d="M100,0C65.823,0,31.224,7.815,31.224,22.751v154.498C31.224,192.185,65.823,200,100,200
		s68.776-7.815,68.776-22.751V22.751C168.776,7.815,134.177,0,100,0z M161.896,147.207c0,2.504-4.366,6.719-16.672,10.357
		c-12.032,3.556-28.094,5.515-45.225,5.515c-17.131,0-33.192-1.959-45.225-5.515c-12.306-3.637-16.672-7.852-16.672-10.357V65.893
		c11.775,8.06,36.946,12.226,61.897,12.226s50.122-4.166,61.896-12.226L161.896,147.207L161.896,147.207z M161.896,55.368
		c0,2.504-4.366,6.719-16.672,10.357c-12.032,3.556-28.094,5.515-45.225,5.515c-17.131,0-33.192-1.959-45.225-5.515
		c-12.306-3.637-16.672-7.852-16.672-10.357V33.276c11.775,8.06,36.946,12.226,61.897,12.226s50.122-4.166,61.896-12.226
		L161.896,55.368L161.896,55.368z M54.775,12.395C66.808,8.838,82.869,6.88,100,6.88s33.192,1.959,45.225,5.515
		c12.306,3.637,16.672,7.852,16.672,10.357c0,2.504-4.366,6.72-16.672,10.357c-12.032,3.556-28.094,5.515-45.225,5.515
		c-17.131,0-33.192-1.959-45.225-5.515c-12.306-3.637-16.672-7.852-16.672-10.357C38.104,20.247,42.47,16.032,54.775,12.395z
		 M145.225,187.605c-12.032,3.556-28.094,5.515-45.225,5.515s-33.192-1.959-45.225-5.515c-12.306-3.637-16.672-7.852-16.672-10.357
		v-19.517c11.775,8.06,36.946,12.226,61.897,12.226s50.122-4.166,61.896-12.226v19.517
		C161.896,179.753,157.53,183.968,145.225,187.605z"/>
	<path class="st0" d="M70.444,86.802c-13.808,0-25.042,11.234-25.042,25.042c0,13.808,11.234,25.042,25.042,25.042
		c10.987,0,41.044-15.409,50.792-20.565c1.036,4.421,3.599,8.531,7.468,11.877c4.802,4.152,11.036,6.534,17.103,6.534
		c4.179,0,5.749-2.208,6.313-3.525c1.376-3.214-0.219-7.57-5.173-14.121c-1.52-2.01-3.087-3.866-4.297-5.242
		c1.21-1.377,2.777-3.232,4.297-5.242c4.954-6.551,6.55-10.906,5.173-14.121c-0.564-1.316-2.133-3.525-6.313-3.525
		c-6.067,0-12.301,2.382-17.103,6.534c-3.869,3.346-6.432,7.457-7.468,11.877C111.487,102.212,81.431,86.802,70.444,86.802z
		 M145.52,95.839c-0.951,2.711-5.269,8.659-10.007,13.633c-1.265,1.329-1.265,3.418,0,4.746c4.738,4.973,9.056,10.921,10.007,13.632
		c-8.355-0.155-17.924-7.092-17.924-16.006C127.596,102.931,137.165,95.994,145.52,95.839z M52.281,111.845
		c0-9.052,6.656-16.577,15.331-17.941c4.166,11.607,4.186,24.275,0.058,35.892C58.967,128.456,52.281,120.917,52.281,111.845z
		 M75.085,129.255c3.415-11.365,3.396-23.476-0.055-34.834c10.119,2.609,28.595,11.563,39.919,17.424
		C103.646,117.694,85.217,126.627,75.085,129.255z"/>
</g>
</svg>
